<svg viewBox="0 0 383 383" xmlns="http://www.w3.org/2000/svg">
    <path d="m108.28125 381.527344c3.980469 1.648437 8.148438 2.457031 12.277344 2.457031 8.3125 0 16.464844-3.257813 22.59375-9.390625l48-48c6.046875-6.042969 9.375-14.082031 9.375-22.625v-107.191406l79.65625-121.730469c10.054687-14.742187 11.121094-33.695313 2.785156-49.472656-8.335938-15.773438-24.601562-25.574219-42.441406-25.574219h-192c-17.839844 0-34.105469 9.800781-42.441406 25.566406-8.335938 15.769532-7.269532 34.730469 2.617187 49.21875l79.824219 121.984375v155.199219c0 12.992188 7.753906 24.589844 19.753906 29.558594zm-73.898438-341.007813c1.351563-2.558593 5.441407-8.519531 14.144532-8.519531h192c8.703125 0 12.792968 5.960938 14.152344 8.519531 1.351562 2.558594 3.96875 9.304688-1.105469 16.746094l-82.4375 125.972656c-.210938.320313-.335938.664063-.511719.992188-.3125.5625-.648438 1.113281-.890625 1.722656-.207031.511719-.328125 1.03125-.480469 1.550781-.140625.480469-.308594.945313-.414062 1.441406-.136719.695313-.167969 1.398438-.214844 2.101563-.015625.320313-.097656.625-.097656.953125v111.96875l-48 48v-159.96875c0-.34375-.078125-.65625-.105469-.992188-.039063-.6875-.070313-1.367187-.207031-2.046874-.101563-.527344-.289063-1.023438-.4375-1.535157-.144532-.488281-.257813-.984375-.457032-1.457031-.273437-.65625-.625-1.265625-.976562-1.871094-.160156-.28125-.265625-.578125-.441406-.851562l-.117188-.175782s0-.007812-.007812-.007812l-82.480469-126.039062c-4.890625-7.199219-2.273437-13.933594-.914063-16.503907zm0 0"/>
</svg>