<svg xmlns="http://www.w3.org/2000/svg" viewBox="0 0 512 512" style="enable-background:new 0 0 512 512;" xml:space="preserve">
	<path d="M20.333,52.333h469.333C501.449,52.333,511,42.782,511,31c0-11.782-9.551-21.333-21.333-21.333H20.333
				C8.551,9.667-1,19.218-1,31C-1,42.782,8.551,52.333,20.333,52.333z"/>
	<path d="M489.667,457.667H20.333C8.551,457.667-1,467.218-1,479s9.551,21.333,21.333,21.333h469.333
				c11.782,0,21.333-9.551,21.333-21.333S501.449,457.667,489.667,457.667z"/>
	<path d="M489.667,308.333H20.333C8.551,308.333-1,317.885-1,329.667C-1,341.449,8.551,351,20.333,351h469.333
				c11.782,0,21.333-9.551,21.333-21.333C511,317.885,501.449,308.333,489.667,308.333z"/>
	<path d="M489.667,159H20.333C8.551,159-1,168.551-1,180.333c0,11.782,9.551,21.333,21.333,21.333h469.333
				c11.782,0,21.333-9.551,21.333-21.333C511,168.551,501.449,159,489.667,159z"/>
</svg>
