<svg xmlns="http://www.w3.org/2000/svg" viewBox="0 0 36 36" id="cash">
                  <g fill="none" fill-rule="evenodd">
                    <g fill-rule="nonzero">
                      <path
                        d="M34 28.556C34 30.458 32.443 32 30.522 32H5.478C3.557 32 2 30.458 2 28.556V8.58C2 7.06 3.246 5.825 4.783 5.825h14.032l5.083-1.784a.69.69 0 0 1 .882.406l.55 1.378h3.105c1.536 0 2.782 1.234 2.782 2.755v1.378c1.537 0 2.783 1.234 2.783 2.755v15.843z"
                        fill="#603936"
                      ></path>
                      <path
                        d="M5.441 7C4.646 7 4 7.672 4 8.5S4.646 10 5.441 10h2.62c.009-.004.015-.012.024-.016L16 7H5.441zM22.496 6.355L13 10h12l-1.215-3.079a1 1 0 0 0-1.289-.566zM30 8.5c0-.828-.734-1.5-1.638-1.5H26l1.191 3H30V8.5z"
                        fill="#FFF"
                      ></path>
                      <path
                        d="M31.619 11.37H5.381c-.505 0-.974-.141-1.381-.37v17.004C4 29.106 4.928 30 6.071 30H30.93C32.073 30 33 29.106 33 28.004v-4.658h-2.762c-1.525 0-2.762-1.192-2.762-2.661 0-1.47 1.237-2.662 2.762-2.662H33V12.7c0-.735-.619-1.33-1.381-1.33z"
                        fill="#603936"
                      ></path>
                      <path
                        d="M33 23v-3h-2.667c-.736 0-1.333.672-1.333 1.5s.597 1.5 1.333 1.5H33z"
                        fill="#FFF"
                      ></path>
                      <path fill="#603936" d="M30 21h1v1h-1z"></path>
                    </g>
                  </g>
                </svg>
