<svg xmlns="http://www.w3.org/2000/svg" viewBox="0 0 36 36" id="cross">
                  <g fill="none" fill-rule="evenodd">
                    <path
                      d="M29 13.125a1.45 1.45 0 0 1-1.441 1.457h-.39v.394a1.45 1.45 0 0 1-1.44 1.457 1.45 1.45 0 0 1-1.44-1.457v-.394H19.44v15.652h.389c.795 0 1.441.654 1.441 1.457a1.45 1.45 0 0 1-1.441 1.458h-.39v.393A1.45 1.45 0 0 1 18 35a1.45 1.45 0 0 1-1.44-1.458v-.393h-.39a1.45 1.45 0 0 1-1.441-1.458c0-.803.646-1.457 1.441-1.457h.39V14.582h-4.848v.394a1.45 1.45 0 0 1-1.441 1.457 1.45 1.45 0 0 1-1.44-1.457v-.394h-.39A1.45 1.45 0 0 1 7 13.125c0-.804.646-1.458 1.441-1.458h.39v-.393a1.45 1.45 0 0 1 1.44-1.458c.795 0 1.44.654 1.44 1.458v.393h4.848v-4.9h-.389a1.451 1.451 0 0 1-1.441-1.458A1.45 1.45 0 0 1 16.17 3.85h.39v-.393A1.45 1.45 0 0 1 18 2c.795 0 1.44.654 1.44 1.458v.393h.39A1.45 1.45 0 0 1 21.27 5.31c0 .803-.646 1.457-1.441 1.457h-.39v4.901h4.848v-.393a1.45 1.45 0 0 1 1.441-1.458c.795 0 1.44.654 1.44 1.458v.393h.39c.795 0 1.441.654 1.441 1.458"
                      stroke="#51241E"
                      fill="#51241E"
                    ></path>
                  </g>
                </svg>
