<svg xmlns="http://www.w3.org/2000/svg" viewBox="0 0 36 36" id="delivery">
                  <g fill="none" fill-rule="evenodd">
                    <path d="M0 0h36v36H0z"></path>
                    <path
                      d="M31.09 11.75h-4.908V5H3.272C1.473 5 0 6.519 0 8.375v18.563h3.273c0 2.8 2.192 5.062 4.909 5.062 2.716 0 4.909-2.261 4.909-5.063h9.818c0 2.802 2.193 5.063 4.91 5.063 2.716 0 4.908-2.261 4.908-5.063H36V18.5l-4.91-6.75zM8 30c-1.107 0-2-.893-2-2s.893-2 2-2 2 .893 2 2-.893 2-2 2zm21.803-16L32 18h-5v-4h2.803zM28 30c-1.107 0-2-.893-2-2s.893-2 2-2 2 .893 2 2-.893 2-2 2z"
                      fill="#51241E"
                    ></path>
                  </g>
                </svg>
