<svg xmlns="http://www.w3.org/2000/svg" viewBox="0 0 36 36" id="delivery2">
                  <g fill="none" fill-rule="evenodd">
                    <path d="M0 0h36v36H0z"></path>
                    <path
                      d="M18 2C9.177 2 2 9.178 2 18s7.179 16 16 16c8.822 0 16-7.178 16-16S26.821 2 18 2zm4.652 9.778c.062.385.198.811.41 1.287l.086.211c.035.09.081.184.126.28a6.126 6.126 0 0 0-.493-.22l-.277-1.534a.736.736 0 0 0 .148-.024zm-1.523 1.025l.427.472-.035.003-.18.097c-.136.077-1.155.05-1.516-.053a2.877 2.877 0 0 0-.047-.151l.199.102.27-.03c.455-.053.744-.257.882-.44zm-3.056 19.42a14.28 14.28 0 0 1-9.063-3.219c.127-.079.229-.154.292-.206l.336-.28-.299-.888.434-1.354.036-.216c0-.516-.207-1.113-.758-1.22-.063-.026-.225-.28-.321-.347-.274-.199-.492-.49-.758-.49H7.97c-.05 0-.188.077-.272.022-.074-.047-.172-.032-.278-.084-.063-.03-.168-.046-.154-.025a3.267 3.267 0 0 1-.363-.678c-.099-.274-.188-.41-.653-.929-.306-.344-.38-.42-.663-.55l-.118-.054c-.12-.059-.198-.119-.275-.174-.122-.086-.274-.196-.494-.285-.185-.076-.244-.12-.423-.27a1.838 1.838 0 0 0-.232-.18 14.166 14.166 0 0 1-.267-2.744l.002-.176c.142-.365.273-.983.21-1.297-.004-.079.046-.326.077-.473.053-.257.098-.512.093-.637.027-.108.218-.398.32-.554.135-.206.25-.398.304-.525.054-.13.35-.583.53-.854l.298-.464c.078-.122.26-.408.19-.725.339-.237.775-.544.831-.591.07-.07.651-.699.055-1.793-.019-.036.205-.064.196-.079.05-.092.354-.242.354-.444v-.047c0-.389.153-.693.497-.693h.214c.077 0 .153-.224.224-.236l.525.126 1.086-.454.116-.238c.001-.002.116-.221.358-.392.36-.256.47-.418.638-.695l-.516-.384.608.272c.071-.069.214-.54.584-.933.431-.46.678-.89.65-.89h.269l.19.12c.058-.064.3-.166.486-.416 2.476-.9 5.207-1.011 7.78-.49-.34.007-.66.15-1.146.382-.118.056-.223.13-.286.15-.111.027-.278.105-.455.184-.106.046-.304.137-.328.148-.438 0-.816.358-1.117.75-.377.679-.286 1.088-.165 1.29l.247.432h.179c-.234 0-.452.339-.587.456l-.65-.794-.613-1.283-1.072.918V7.2l-.658-.223-.666 1.377.95 1.298.376-.33v.09l.602-.152c-.014.15-.045.299.005.436l-1.762.406.152.65c.027.105.033.31.042.434-.241.95-.023 1.24.063 1.351l.159.173c-.223.224-.37.472-.443.595-.1.116-.283.32-.321.624a1.51 1.51 0 0 1-.278.25l-.117.072c-.422.256-.817.512-1.016.841-.249.415-.406.778-.465 1.081-.068.338-.068.602-.068 1.001 0 .123-.006.227-.013.324-.013.212-.027.431.022.717.103.61.95 1.707.962 1.72.265.33.579.698.943.913.188.112.43.31.531.395.242.282.804.524 1.355.316.154-.059.31-.087.46-.122.278-.062.594-.13.906-.304.072-.04.136-.078.195-.104.24.396.734.592 1.235.43l.01-.005c.017.102.032.197.049.285.018.086.033.162.032.312-.01.217-.03.621.302.953.066.065.164.142.27.23.044.034.111.086.163.132.021.273.08.729.223 1.013.07.134.088.237.112.192-.122.24-.362.89-.387.972-.15.666-.063.92-.037.992.104.32.3.617.598.912.036.036.053.088.087.217.042.148.097.35.238.537.057.079.187.405.251.603l.081.443-.001 1.23.736-.104s1.206-.174 1.441-.233c.274-.07 1.202-.495 1.535-.824.17-.168.25-.325.305-.43.043-.08.049-.09.091-.127.275-.217.776-.598.776-.598l.271-.207-.06-.929.463-.617.393-.398c-.092.22-.21.505-.252.672-.077.303-.026.67.219.977l.285.176h.313l.23.085c.24-.078.428-.195.615-.371.056-.054.11-.078.145-.103.351-.23.69-.816.772-1.13l.222-.816a5.31 5.31 0 0 0 .13-.975c0-.231-.061-.486-.074-.536l-.403-1.61-1.125 2.096c-.165.079-.283.153-.39.23a.86.86 0 0 0-.02-.217c-.026-.107-.083-.6-.133-1.053.08-.166.184-.359.243-.442.105-.139.166-.278.214-.387.057-.133.086-.195.18-.274.346-.285.577-.6.748-.832l.134-.177c.184-.24.47-.622.566-.77.158-.233.267-.651.318-.877l.204-.92-.77.127c.092-.046.176-.09.232-.128a4.48 4.48 0 0 1 .213-.123c.35-.195.613-.346.777-.508l.344-.248c.302-.2.68-.448.727-.878.067.053.138.102.22.14.055.035.188.18.294.312.08.186.28.655.322.82.028.11.112.317.203.532.07.164.148.336.165.351 0 .144.065.575.307.85-.952 6.89-6.935 12.22-14.15 12.22zm-.1-20.615l-.02.001a3.873 3.873 0 0 1-.367-.091l-.132-.04-.14.01-.203.02.02-.022c.041-.047.08-.092.24-.13.29-.074.447-.176.501-.23.084-.019.283-.05.443-.069l.248.124c.073.066.176.139.326.21l-.941.202.024.015z"
                      fill="#51241E"
                      fill-rule="nonzero"
                    ></path>
                  </g>
                </svg>
