          <svg
            xmlns="http://www.w3.org/2000/svg"
            xmlns:xlink="http://www.w3.org/1999/xlink"
            width="143"
            height="74"
            viewBox="0 0 143 74"
          >
            <defs>
              <path id="a" d="M.06.02h24.907v12.967H.06z" />
            </defs>
            <g fill="none" fill-rule="evenodd">
              <g fill="#502B27">
                <path
                  d="M15.804 14.716c-1.022.045-2.09.268-3.2.668-1.113.4-2.094.846-2.946 1.335l-.405-.668 1.283-.734V.034h5.268v14.682zm0 11.48v20.622H5.268v-.868h5.268V25.595l-1.283-.734.405-.668c.896.49 1.89.925 2.978 1.302 1.09.378 2.146.612 3.168.7zM10.536.034V.9H5.268l.045 18.287a7.005 7.005 0 0 1 1.745-1.735 43.81 43.81 0 0 1 2.127-1.402l.406.668c-.676.445-1.43.99-2.263 1.635-.834.645-1.408 1.346-1.722 2.102.09.223.19.412.304.567.112.157.236.324.371.501v.067c.27.4.765.845 1.486 1.334.72.49 1.328.913 1.824 1.268l-.406.668a24.538 24.538 0 0 1-2.16-1.402c-.811-.577-1.397-1.178-1.757-1.801v25.16H0V.034h10.536zM42.482 46.818h5.268V.034h-5.268v46.784zm-2.432 0H24.246V.034h5.268V45.95h5.268V29.333a19.33 19.33 0 0 1-2.904-2.136c-.901-.8-1.35-1.869-1.35-3.204 0-.622.202-1.301.607-2.035.405-.734.99-1.101 1.756-1.101.495 0 .923.178 1.283.533.36.357.54.801.54 1.335 0 .49-.18.913-.54 1.268-.36.357-.81.534-1.35.534-.316 0-.564-.043-.743-.133v-.067h-.135c-.18 0-.294.067-.338.2l-.068.067v.267c0 .178.068.378.203.6.135.224.247.401.338.535.36.534.866 1.045 1.52 1.535.651.49 1.35.912 2.093 1.267.743.357 1.496.68 2.263.969.765.29 1.462.5 2.093.633v16.418zM71.861.034v16.418c-.622.133-1.311.345-2.067.634-.756.29-1.5.612-2.235.968-.735.356-1.428.778-2.08 1.268-.653.49-1.16 1-1.52 1.535-.09.133-.202.312-.338.533-.135.224-.202.424-.202.601v.267l.067.067c.045.133.158.2.338.2h.135v-.067c.18-.088.428-.133.743-.133.54 0 .99.178 1.351.534.36.356.54.779.54 1.268 0 .534-.18.979-.54 1.335-.36.356-.788.534-1.283.534-.767 0-1.351-.368-1.756-1.102-.406-.734-.608-1.411-.608-2.035 0-1.335.45-2.403 1.35-3.204.9-.8 1.868-1.512 2.905-2.135V.9h-5.268v45.917h-5.268V.034H71.86"
                />
              </g>
              <path
                fill="#502B27"
                d="M80 0h5.379v23.769c.408-.358.907-.84 1.498-1.444a29.989 29.989 0 0 0 1.736-1.947 12.042 12.042 0 0 0 1.43-2.182c.385-.76.578-1.477.578-2.149V0H96v47h-5.379V19.001c-.5 1.165-1.237 2.306-2.213 3.425a21.343 21.343 0 0 1-3.03 2.887V47H80V0M114.818 1h5.478v46.588a4.968 4.968 0 0 1 2.01 2.036c.462.868.694 1.79.694 2.77 0 .756-.15 1.468-.45 2.136a5.974 5.974 0 0 1-1.214 1.768c-.51.512-1.11.923-1.803 1.235a5.37 5.37 0 0 1-2.219.467c-.832 0-1.56-.256-2.184-.767-.624-.512-.936-1.191-.936-2.036 0-.8.288-1.48.866-2.036.578-.557 1.283-.834 2.116-.834.831 0 1.525.289 2.08.868.554.578.832 1.245.832 2.002 0 .356-.094.756-.278 1.202.74-.49 1.306-1.068 1.7-1.736.392-.668.589-1.446.589-2.336 0-1.29-.486-2.426-1.456-3.404a4.946 4.946 0 0 0-2.636-1.335h-3.19v-.067c-.832.222-1.733.334-2.704.334-1.618 0-2.959-.3-4.022-.901-1.064-.6-1.896-1.39-2.496-2.37-.601-.978-1.018-2.112-1.248-3.403a22.207 22.207 0 0 1-.347-3.938V1h5.409v44.186c0 .757.288 1.246.867 1.468.577.223 1.19.333 1.837.333s1.26-.11 1.838-.333c.577-.222.867-.711.867-1.468V1M137.667 8.729c-.6.896-1.41 1.656-2.424 2.283a53.242 53.242 0 0 1-2.91 1.678v13.63h5.334V8.73zM143 0v47h-5.333V27.864h-5.334V47H127V13.294a11.648 11.648 0 0 0 4.889-1.342 28.855 28.855 0 0 0 4.273-2.753c.502-.358.89-.884 1.163-1.578.273-.694.41-1.353.41-1.981 0-1.298-.497-2.417-1.49-3.357-.994-.94-2.162-1.41-3.501-1.41-.902 0-1.69.191-2.366.57-.676.382-1.261.93-1.757 1.646.45-.179.856-.269 1.217-.269.765 0 1.44.269 2.026.806.586.537.88 1.208.88 2.014 0 .806-.283 1.49-.846 2.048-.562.56-1.25.84-2.06.84-.856 0-1.543-.303-2.061-.907A3.148 3.148 0 0 1 127 5.506c0-.76.157-1.477.472-2.149a5.764 5.764 0 0 1 1.25-1.745 6.067 6.067 0 0 1 1.79-1.175A5.411 5.411 0 0 1 132.676 0c1.017 0 1.975.224 2.877.672a5.012 5.012 0 0 1 2.115 1.947V0H143zM3.538 69.276H5c1.333 0 2.194-.492 2.194-1.847 0-1.403-.947-1.777-2.366-1.777h-1.29v3.624zm0-4.348h1.398c1.096 0 1.892-.351 1.892-1.637 0-1.122-.645-1.566-1.892-1.566H3.538v3.203zM5.28 61c1.204 0 3.269.024 3.269 2.127 0 .398-.108 1.683-1.72 2.058v.046C9.021 65.441 9 67.171 9 67.545 9 68.293 8.72 70 5.688 70H1v-.678c.86-.07.968-.818.968-1.683v-4.255c0-.888-.065-1.542-.968-1.706V61h4.28zM13.584 61.695c-.86 0-1.719.63-1.76 2.424h3.311c.063-1.75-.734-2.424-1.55-2.424zM13.752 70C12.389 70 10 69.26 10 65.803 10 62.93 11.551 61 13.689 61c2.221 0 3.164 2.087 3.101 3.816h-5.009c-.02.314-.02.628-.02.942 0 1.28.272 3.322 2.263 3.322 1.069 0 2.033-.74 2.599-1.37l.377.382C16.267 69.08 15.093 70 13.752 70zM21.664 61v.678c-.573.047-.985.467-.985 1.216v.818c0 1.402.573 1.59 1.374 1.59.435 0 1.352-.047 2.245-.398v-1.52c0-.958-.07-1.496-1.03-1.706V61H27v.678c-.962.21-1.03.748-1.03 1.706v4.255c0 .911.114 1.566 1.03 1.683V70h-3.87v-.678c1.099-.07 1.168-.701 1.168-1.683v-1.987c-.71.257-2.061.608-2.932.608-2.335 0-2.358-1.473-2.358-1.964V62.87c0-.234-.023-1.052-1.008-1.192V61h3.664M28 69.322c.804-.094.957-.678.957-1.683v-4.255c0-.958-.044-1.496-.957-1.706V61h3.522v.678c-.87.187-.978.678-.978 1.706v1.754h3.89v-1.754c0-.888-.064-1.542-.977-1.706V61H37v.678c-.913.21-.978.748-.978 1.706v4.255c0 .911.108 1.566.978 1.683V70h-3.543v-.678c.87-.07.978-.818.978-1.683v-1.777h-3.891v1.777c0 .982.13 1.613.978 1.683V70H28v-.678M47.249 61H51v.678c-.979.21-1.025.748-1.025 1.706v4.723c0 .116 0 1.098 1.025 1.215V70h-3.751v-.678c.163-.024 1.025-.14 1.025-1.215v-4.723c0-.958-.046-1.496-1.025-1.706V61zm-5.126 8.276c.816 0 2.587-.14 2.587-2.595 0-2.081-1.492-2.221-2.074-2.221-.629 0-1.374.28-1.887.538v4.278h1.374zM41.798 61v.678c-.979.164-1.049.818-1.049 1.706v.678c.909-.444 1.654-.63 2.586-.63 2.19 0 3.332 1.448 3.332 3.342 0 1.286-.7 3.226-3.472 3.226H38v-.678c.932-.117 1.048-.772 1.048-1.683v-4.255c0-.958-.07-1.496-1.048-1.706V61h3.798z"
              />
              <g transform="translate(52 61)">
                <mask id="b" fill="#fff">
                  <use xlink:href="#a" />
                </mask>
                <path
                  fill="#502B27"
                  d="M3.989.711c-.942 0-1.884.625-1.93 2.409h3.63C5.758 1.38 4.885.711 3.99.711zm.184 8.252C2.679 8.963.06 8.228.06 4.793.06 1.94 1.76.02 4.104.02c2.435 0 3.469 2.074 3.4 3.792H2.013c-.023.312-.023.624-.023.936 0 1.272.298 3.3 2.481 3.3 1.172 0 2.229-.735 2.85-1.36l.413.38c-.804.98-2.09 1.895-3.561 1.895zM23.818.845c-.896.067-1.034.647-1.034 1.584v4.906c0 .424.3.625.552.78.574.38 1.631.893 1.631 2.03 0 1.25-1.034 2.454-2.895 2.454-.597 0-1.769-.268-2.39-.47-.987-.333-1.952-.802-2.986-.802-.46 0-.62.268-.62.49 0 .068.022.157.183.157.368 0 .161-.156.437-.156.252 0 .528.156.528.535 0 .312-.207.647-.712.647-.597 0-.942-.424-.942-.937 0-.714.69-1.828 2.757-1.828.781 0 1.448.222 2.068.423 1.425.446 2.068.714 2.62.714.826 0 1.286-.558 1.286-1.25 0-.914-.965-1.337-1.907-1.337h-8.11v-.647c.918-.067 1.033-.78 1.033-1.606V2.43c0-.87-.115-1.561-1.034-1.584V.198h3.745v.647c-.942.045-1.033.67-1.033 1.584v5.665h4.112V2.429c0-.914-.092-1.539-1.034-1.584V.198h3.745v.647"
                  mask="url(#b)"
                />
              </g>
              <path
                fill="#502B27"
                d="M80.584 61.695c-.86 0-1.719.63-1.76 2.424h3.31c.063-1.75-.733-2.424-1.55-2.424zM80.75 70C79.39 70 77 69.26 77 65.803 77 62.93 78.55 61 80.689 61c2.22 0 3.164 2.087 3.101 3.816h-5.008c-.022.314-.022.628-.022.942 0 1.28.273 3.322 2.264 3.322 1.069 0 2.033-.74 2.599-1.37l.377.382C83.266 69.08 82.093 70 80.751 70zM85 69.322c.804-.094.957-.678.957-1.683v-4.255c0-.958-.044-1.496-.957-1.706V61h3.522v.678c-.87.187-.978.678-.978 1.706v1.754h3.89v-1.754c0-.888-.064-1.542-.977-1.706V61H94v.678c-.913.21-.978.748-.978 1.706v4.255c0 .911.108 1.566.978 1.683V70h-3.543v-.678c.87-.07.978-.818.978-1.683v-1.777h-3.891v1.777c0 .982.13 1.613.978 1.683V70H85v-.678M96 69.322c.804-.094.957-.678.957-1.683v-4.255c0-.958-.044-1.496-.957-1.706V61h3.522v.678c-.87.187-.978.678-.978 1.706v1.754h3.89v-1.754c0-.888-.064-1.542-.977-1.706V61H105v.678c-.913.21-.978.748-.978 1.706v4.255c0 .911.109 1.566.978 1.683V70h-3.543v-.678c.87-.07.978-.818.978-1.683v-1.777h-3.891v1.777c0 .982.13 1.613.978 1.683V70H96v-.678M107.99 65.511c0 1.077-.048 3.794 2.51 3.794s2.51-2.717 2.51-3.794c0-3.254-1.184-3.816-2.51-3.816-1.326 0-2.51.562-2.51 3.816zm6.844-1.211c.118.426.166.874.166 1.323 0 .382-.071.741-.166 1.1C114.005 69.821 111.14 70 110.5 70c-.64 0-3.505-.18-4.334-3.277a4.274 4.274 0 0 1-.166-1.1c0-.449.047-.897.166-1.323.805-3.053 3.457-3.3 4.334-3.3.876 0 3.529.247 4.334 3.3zM124 68.227c-.786.875-2.012 1.773-3.7 1.773-2.196 0-4.3-1.481-4.3-4.331 0-2.649 1.85-4.669 4.416-4.669 1.942 0 2.89.875 2.89 1.661 0 .382-.3.786-.855.786-.231 0-.879-.046-.925-.876-.023-.314-.023-.876-1.064-.876-1.225 0-2.52.988-2.52 3.974 0 2.917 2.058 3.299 2.867 3.299.879 0 2.174-.472 2.798-1.145l.393.404M132 61v2.875h-.632c-.13-1.59-1.025-2.15-2.223-2.15h-.35v5.914c0 .982.197 1.613 1.003 1.683V70h-3.574v-.678c.85-.117.98-.654.98-1.683v-5.914h-.327c-1.33 0-2.07.654-2.245 2.15H124V61h8M136.573 61v.678c-.926.21-.97.748-.97 1.706v3.343h.044l3.772-3.74c.022-.724-.199-1.122-.948-1.31V61H142v.678c-.86.187-.97.701-.97 1.706v4.255c0 .959.176 1.59.97 1.683V70h-3.574v-.678c.794-.094.993-.678.993-1.683v-3.46h-.044l-3.772 3.694c-.044.771.154 1.332.97 1.45V70H133v-.678c.794-.07.992-.724.992-1.683v-4.255c0-.911-.11-1.612-.992-1.706V61h3.573"
              />
            </g>
          </svg>
