 <svg xmlns="http://www.w3.org/2000/svg" width="24" height="24"
     viewBox="0 0 24 24">
     <path fill="#8E8E93" fill-rule="evenodd"
         d="M20.67 19.167l-4.928-4.93a6.976 6.976 0 0 0 1.35-4.156 7.112 7.112 0 0 0-7.071-7.08A6.99 6.99 0 0 0 3 10.03a7.113 7.113 0 0 0 7.07 7.082 6.954 6.954 0 0 0 4.168-1.365l.005-.004 4.924 4.927a1.063 1.063 0 1 0 1.502-1.504zm-10.604-3.466a5.69 5.69 0 0 1-5.657-5.665 5.593 5.593 0 0 1 5.616-5.625 5.69 5.69 0 0 1 5.658 5.665 5.593 5.593 0 0 1-5.617 5.625z" />
 </svg>
