<svg xmlns="http://www.w3.org/2000/svg" viewBox="0 0 512 512" style="enable-background:new 0 0 512 512;" xml:space="preserve">
	<path d="M284.284,256L506.142,34.142c7.811-7.81,7.811-20.474,0-28.284c-7.811-7.811-20.474-7.811-28.284,0L256,227.716
			L34.142,5.858c-7.811-7.811-20.474-7.811-28.284,0c-7.811,7.81-7.811,20.474,0,28.284L227.716,256L5.858,477.858
			c-7.811,7.811-7.811,20.474,0,28.284c7.81,7.81,20.473,7.811,28.284,0L256,284.284l221.858,221.858
			c7.81,7.81,20.473,7.811,28.284,0c7.811-7.811,7.811-20.474,0-28.284L284.284,256z"/>
</svg>
