<svg height="448pt" viewBox="0 0 448 448" width="448pt" xmlns="http://www.w3.org/2000/svg"><path d="m280 56c0 30.929688-25.070312 56-56 56s-56-25.070312-56-56 25.070312-56 56-56 56 25.070312 56 56zm0 0"/><path d="m280 392c0 30.929688-25.070312 56-56 56s-56-25.070312-56-56 25.070312-56 56-56 56 25.070312 56 56zm0 0"/><path d="m280 224c0 30.929688-25.070312 56-56 56s-56-25.070312-56-56 25.070312-56 56-56 56 25.070312 56 56zm0 0"/><path d="m448 56c0 30.929688-25.070312 56-56 56s-56-25.070312-56-56 25.070312-56 56-56 56 25.070312 56 56zm0 0"/><path d="m448 392c0 30.929688-25.070312 56-56 56s-56-25.070312-56-56 25.070312-56 56-56 56 25.070312 56 56zm0 0"/><path d="m448 224c0 30.929688-25.070312 56-56 56s-56-25.070312-56-56 25.070312-56 56-56 56 25.070312 56 56zm0 0"/><path d="m112 56c0 30.929688-25.070312 56-56 56s-56-25.070312-56-56 25.070312-56 56-56 56 25.070312 56 56zm0 0"/><path d="m112 392c0 30.929688-25.070312 56-56 56s-56-25.070312-56-56 25.070312-56 56-56 56 25.070312 56 56zm0 0"/><path d="m112 224c0 30.929688-25.070312 56-56 56s-56-25.070312-56-56 25.070312-56 56-56 56 25.070312 56 56zm0 0"/></svg>