<svg height="448pt" viewBox="-16 0 448 448" width="448pt" xmlns="http://www.w3.org/2000/svg"><path d="m240 288h96v64h-96zm0 0"/><path d="m0 136c-.0195312 10.933594 7.382812 20.488281 17.976562 23.199219.101563 0 .199219 0 .304688.066406 1.863281.5 3.789062.75 5.71875.734375h16c13.234375-.046875 23.953125-10.765625 24-24v-8h-64zm0 0"/><path d="m80 136c.035156 13.242188 10.761719 23.964844 24 24h24c13.234375-.046875 23.953125-10.765625 24-24v-8h-72zm0 0"/><path d="m166.9375 0h-56.699219l-28 112h70.699219zm0 0"/><path d="m392 448v-272h-16c-1.675781-.007812-3.347656-.121094-5.007812-.335938-.558594-.070312-1.097657-.199218-1.648438-.296874-1.085938-.183594-2.167969-.375-3.199219-.648438-.648437-.167969-1.273437-.382812-1.90625-.574219-.933593-.296875-1.863281-.59375-2.773437-.953125-.65625-.253906-1.296875-.550781-1.945313-.839844-.847656-.390624-1.6875-.800781-2.503906-1.238281-.640625-.34375-1.261719-.707031-1.878906-1.089843-.800781-.480469-1.542969-1-2.296875-1.527344-.59375-.425782-1.175782-.839844-1.742188-1.296875-.738281-.589844-1.433594-1.222657-2.136718-1.863281-.511719-.472657-1.039063-.9375-1.527344-1.441407-.722656-.734375-1.386719-1.527343-2.058594-2.328125-.390625-.46875-.800781-.917968-1.191406-1.414062l-.183594-.152344c-.058594.078125-.125.152344-.191406.222656-.320313.425782-.6875.800782-1.023438 1.21875-.722656.871094-1.441406 1.734375-2.234375 2.535156-.445312.457032-.925781.878907-1.398437 1.3125-.734375.6875-1.480469 1.359376-2.265625 1.984376-.535157.421874-1.078125.796874-1.597657 1.214843-.800781.558594-1.601562 1.105469-2.402343 1.601563-.582031.359375-1.175781.703125-1.78125 1.03125-.847657.464844-1.714844.878906-2.601563 1.277344-.617187.289062-1.230468.570312-1.871094.800781-.929687.367187-1.878906.671875-2.839843.96875-.617188.191406-1.226563.398437-1.847657.558593-1.074218.28125-2.167968.480469-3.273437.664063-.535156.089844-1.0625.21875-1.601563.289063-1.679687.214843-3.375.320312-5.070312.320312h-24c-1.675781-.007812-3.347656-.121094-5.007812-.335938-.558594-.070312-1.097657-.199218-1.648438-.296874-1.085938-.183594-2.167969-.375-3.199219-.648438-.648437-.167969-1.273437-.382812-1.90625-.574219-.933593-.296875-1.863281-.59375-2.773437-.953125-.65625-.253906-1.296875-.550781-1.945313-.839844-.847656-.390624-1.6875-.800781-2.503906-1.238281-.640625-.34375-1.261719-.707031-1.878906-1.089843-.800781-.480469-1.542969-1-2.296875-1.527344-.59375-.425782-1.175782-.839844-1.742188-1.296875-.738281-.589844-1.433594-1.222657-2.136718-1.863281-.511719-.472657-1.039063-.9375-1.527344-1.441407-.722656-.734375-1.386719-1.527343-2.058594-2.328125-.390625-.46875-.800781-.917968-1.191406-1.414062l-.183594-.152344c-.058594.078125-.125.152344-.191406.222656-.320313.425782-.6875.800782-1.023438 1.21875-.722656.871094-1.441406 1.734375-2.234375 2.535156-.445312.457032-.925781.878907-1.398437 1.3125-.734375.6875-1.480469 1.359376-2.265625 1.984376-.535157.421874-1.078125.796874-1.597657 1.214843-.800781.558594-1.601562 1.105469-2.402343 1.601563-.582031.359375-1.175781.703125-1.78125 1.03125-.847657.464844-1.714844.878906-2.601563 1.277344-.617187.289062-1.230468.570312-1.871094.800781-.929687.367187-1.878906.671875-2.839843.96875-.617188.191406-1.226563.398437-1.847657.558593-1.074218.28125-2.167968.480469-3.273437.664063-.535156.089844-1.0625.21875-1.601563.289063-1.679687.214843-3.375.320312-5.070312.320312h-32c-1.675781-.007812-3.347656-.121094-5.007812-.335938-.558594-.070312-1.097657-.199218-1.648438-.296874-1.085938-.183594-2.167969-.375-3.199219-.648438-.648437-.167969-1.273437-.382812-1.90625-.574219-.933593-.296875-1.863281-.59375-2.773437-.953125-.65625-.253906-1.296875-.550781-1.945313-.839844-.847656-.390624-1.6875-.800781-2.503906-1.238281-.640625-.34375-1.261719-.707031-1.878906-1.089843-.800781-.480469-1.542969-1-2.296875-1.527344-.59375-.425782-1.175782-.839844-1.742188-1.296875-.738281-.589844-1.433594-1.222657-2.136718-1.863281-.511719-.472657-1.039063-.9375-1.527344-1.441407-.722656-.734375-1.386719-1.527343-2.058594-2.328125-.390625-.46875-.800781-.917968-1.191406-1.414062l-.183594-.152344c-.058594.078125-.125.152344-.191406.222656-.320313.425782-.6875.800782-1.023438 1.21875-.722656.871094-1.441406 1.734375-2.234375 2.535156-.445312.457032-.925781.878907-1.398437 1.3125-.734375.6875-1.480469 1.359376-2.265625 1.984376-.535157.421874-1.078125.796874-1.597657 1.214843-.800781.558594-1.601562 1.105469-2.402343 1.601563-.582031.359375-1.175781.703125-1.78125 1.03125-.847657.464844-1.714844.878906-2.601563 1.277344-.617187.289062-1.230468.570312-1.871094.800781-.929687.367187-1.878906.671875-2.839843.96875-.617188.191406-1.226563.398437-1.847657.558593-1.074218.28125-2.167968.480469-3.273437.664063-.535156.089844-1.0625.21875-1.601563.289063-1.679687.214843-3.375.320312-5.070312.320312h-24c-1.675781-.007812-3.347656-.121094-5.007812-.335938-.558594-.070312-1.097657-.199218-1.648438-.296874-1.085938-.183594-2.167969-.375-3.199219-.648438-.648437-.167969-1.273437-.382812-1.90625-.574219-.933593-.296875-1.863281-.59375-2.773437-.953125-.65625-.253906-1.296875-.550781-1.945313-.839844-.847656-.390624-1.6875-.800781-2.503906-1.238281-.640625-.34375-1.261719-.707031-1.878906-1.089843-.800781-.480469-1.542969-1-2.296875-1.527344-.59375-.425782-1.175782-.839844-1.742188-1.296875-.738281-.589844-1.433594-1.222657-2.136718-1.863281-.511719-.472657-1.039063-.9375-1.527344-1.441407-.722656-.734375-1.386719-1.527343-2.058594-2.328125-.390625-.46875-.800781-.917968-1.191406-1.414062l-.183594-.152344c-.058594.078125-.125.152344-.191406.222656-.320313.425782-.6875.800782-1.023438 1.21875-.722656.871094-1.441406 1.734375-2.234375 2.535156-.445312.457032-.925781.878907-1.398437 1.3125-.734375.6875-1.480469 1.359376-2.265625 1.984376-.535157.421874-1.078125.796874-1.597657 1.214843-.800781.558594-1.601562 1.105469-2.402343 1.601563-.582031.359375-1.175781.703125-1.78125 1.03125-.847657.464844-1.714844.878906-2.601563 1.277344-.617187.289062-1.230468.570312-1.871094.800781-.929687.367187-1.878906.671875-2.839843.96875-.617188.191406-1.226563.398437-1.847657.558593-1.074218.28125-2.167968.480469-3.273437.664063-.535156.089844-1.0625.21875-1.601563.289063-1.679687.214843-3.375.320312-5.070312.320312h-16v272h32v-160c0-39.765625 32.234375-72 72-72s72 32.234375 72 72v160zm-168-168c0-4.417969 3.582031-8 8-8h112c4.417969 0 8 3.582031 8 8v80c0 4.417969-3.582031 8-8 8h-112c-4.417969 0-8-3.582031-8-8zm0 0"/><path d="m128 232c-30.910156.039062-55.960938 25.089844-56 56v160h112v-160c-.039062-30.910156-25.089844-55.960938-56-56zm0 0"/><path d="m2.878906 112h62.882813l28-112h-55.882813zm0 0"/><path d="m168 136c.035156 13.242188 10.761719 23.964844 24 24h32c13.234375-.046875 23.953125-10.765625 24-24v-8h-80zm0 0"/><path d="m264 136c.035156 13.242188 10.761719 23.964844 24 24h24c13.234375-.046875 23.953125-10.765625 24-24v-8h-72zm0 0"/><path d="m397.832031 159.257812c10.667969-2.675781 18.15625-12.257812 18.167969-23.257812v-8h-64v8c.035156 13.242188 10.761719 23.964844 24 24h16c1.96875.027344 3.933594-.226562 5.832031-.742188zm0 0"/><path d="m413.121094 112-35-112h-55.882813l28 112zm0 0"/><path d="m183.0625 0-14 112h77.875l-14-112zm0 0"/><path d="m249.0625 0 14 112h70.699219l-28-112zm0 0"/></svg>